<?xml version="1.0" encoding="UTF-8" standalone="no"?>
<!DOCTYPE svg PUBLIC "-//W3C//DTD SVG 1.1//EN" "http://www.w3.org/Graphics/SVG/1.1/DTD/svg11.dtd">
<svg width="100%" height="100%" viewBox="0 0 260 260" version="1.1" xmlns="http://www.w3.org/2000/svg" xmlns:xlink="http://www.w3.org/1999/xlink" xml:space="preserve" xmlns:serif="http://www.serif.com/" style="fill-rule:evenodd;clip-rule:evenodd;stroke-linejoin:round;stroke-miterlimit:2;">
    <rect id="Artboard1" x="0" y="0" width="260" height="260" style="fill:none;"/>
    <g id="Artboard11" serif:id="Artboard1">
        <g transform="matrix(4.44022,0,0,4.44022,-451.604,-132.499)">
            <g transform="matrix(50,0,0,50,105.335,72.9935)">
                <path d="M0.133,0.097C0.114,0.132 0.09,0.158 0.061,0.175C0.032,0.192 0.003,0.2 -0.026,0.2C-0.043,0.197 -0.052,0.19 -0.052,0.18C-0.052,0.171 -0.049,0.167 -0.042,0.167C-0.039,0.167 -0.036,0.167 -0.032,0.168C-0.028,0.169 -0.022,0.169 -0.013,0.169C0.024,0.169 0.052,0.156 0.073,0.13C0.094,0.104 0.108,0.071 0.115,0.03C0.123,-0.019 0.129,-0.072 0.133,-0.129C0.136,-0.186 0.139,-0.251 0.14,-0.326C0.14,-0.443 0.138,-0.53 0.135,-0.587C0.132,-0.644 0.127,-0.676 0.121,-0.684C0.116,-0.685 0.11,-0.687 0.102,-0.688C0.093,-0.689 0.085,-0.689 0.076,-0.69C0.067,-0.69 0.059,-0.69 0.052,-0.691C0.044,-0.691 0.038,-0.691 0.035,-0.691C0.032,-0.691 0.03,-0.692 0.028,-0.694C0.025,-0.695 0.024,-0.698 0.024,-0.702C0.024,-0.715 0.028,-0.722 0.036,-0.724C0.037,-0.724 0.043,-0.723 0.052,-0.722C0.061,-0.721 0.073,-0.719 0.088,-0.718C0.102,-0.716 0.12,-0.714 0.14,-0.713C0.16,-0.712 0.181,-0.711 0.204,-0.711C0.251,-0.711 0.287,-0.712 0.312,-0.715C0.337,-0.718 0.354,-0.72 0.361,-0.721C0.363,-0.721 0.365,-0.72 0.366,-0.717C0.367,-0.714 0.368,-0.711 0.368,-0.708C0.368,-0.704 0.367,-0.7 0.365,-0.697C0.363,-0.694 0.36,-0.692 0.356,-0.692C0.348,-0.691 0.339,-0.69 0.329,-0.689C0.319,-0.688 0.309,-0.686 0.3,-0.683C0.293,-0.681 0.286,-0.673 0.282,-0.658C0.277,-0.643 0.273,-0.624 0.27,-0.602C0.267,-0.579 0.264,-0.552 0.263,-0.523C0.262,-0.493 0.261,-0.462 0.26,-0.43L0.26,-0.385C0.26,-0.354 0.26,-0.324 0.261,-0.295C0.261,-0.265 0.261,-0.237 0.261,-0.21C0.261,-0.183 0.261,-0.158 0.262,-0.135C0.262,-0.112 0.262,-0.092 0.262,-0.075C0.262,-0.038 0.259,-0.012 0.252,0.004C0.245,0.02 0.236,0.032 0.225,0.039C0.214,0.046 0.201,0.051 0.187,0.055C0.173,0.058 0.159,0.066 0.144,0.077L0.133,0.097Z" style="fill:rgb(35,31,32);fill-rule:nonzero;"/>
            </g>
            <g transform="matrix(50,0,0,50,123.485,72.9935)">
                <path d="M0.173,-0.021C0.158,-0.012 0.138,-0.003 0.115,0.006C0.092,0.015 0.067,0.02 0.042,0.02C0.027,0.02 0.016,0.019 0.009,0.016C0.002,0.013 -0.001,0.008 -0.001,-0C-0.001,-0.003 -0.001,-0.006 0.001,-0.009C0.002,-0.012 0.003,-0.015 0.004,-0.018C0.005,-0.02 0.007,-0.022 0.009,-0.023C0.011,-0.024 0.013,-0.023 0.015,-0.02C0.019,-0.015 0.025,-0.012 0.033,-0.011C0.041,-0.01 0.05,-0.01 0.059,-0.01C0.073,-0.011 0.086,-0.016 0.097,-0.025C0.108,-0.034 0.117,-0.046 0.122,-0.061C0.125,-0.07 0.127,-0.085 0.13,-0.105C0.133,-0.125 0.135,-0.149 0.137,-0.177C0.138,-0.205 0.14,-0.236 0.141,-0.271C0.142,-0.305 0.142,-0.341 0.142,-0.379C0.142,-0.466 0.14,-0.533 0.135,-0.582C0.13,-0.63 0.124,-0.658 0.117,-0.665C0.112,-0.669 0.105,-0.672 0.097,-0.675C0.089,-0.677 0.081,-0.678 0.073,-0.679C0.064,-0.68 0.056,-0.68 0.048,-0.68C0.04,-0.68 0.034,-0.68 0.029,-0.679C0.024,-0.678 0.021,-0.68 0.018,-0.683C0.015,-0.686 0.014,-0.69 0.014,-0.693C0.014,-0.705 0.018,-0.711 0.027,-0.711C0.032,-0.711 0.04,-0.711 0.052,-0.71C0.064,-0.708 0.078,-0.708 0.094,-0.707C0.109,-0.705 0.126,-0.705 0.143,-0.704C0.16,-0.703 0.176,-0.703 0.19,-0.703C0.207,-0.703 0.224,-0.706 0.239,-0.711C0.254,-0.716 0.269,-0.722 0.285,-0.729C0.301,-0.736 0.319,-0.742 0.338,-0.747C0.357,-0.752 0.379,-0.755 0.404,-0.755C0.435,-0.755 0.465,-0.752 0.492,-0.747C0.519,-0.742 0.543,-0.733 0.563,-0.723C0.583,-0.712 0.599,-0.697 0.611,-0.68C0.622,-0.663 0.628,-0.642 0.628,-0.619C0.628,-0.592 0.622,-0.568 0.611,-0.547C0.6,-0.525 0.586,-0.506 0.569,-0.489C0.552,-0.472 0.534,-0.458 0.515,-0.447C0.496,-0.435 0.478,-0.426 0.463,-0.42C0.488,-0.418 0.515,-0.414 0.544,-0.408C0.573,-0.401 0.601,-0.392 0.626,-0.379C0.651,-0.366 0.673,-0.348 0.69,-0.327C0.707,-0.306 0.715,-0.279 0.715,-0.247C0.715,-0.222 0.71,-0.198 0.7,-0.175C0.689,-0.152 0.675,-0.13 0.658,-0.111C0.641,-0.091 0.621,-0.073 0.599,-0.057C0.576,-0.04 0.553,-0.026 0.529,-0.015C0.504,-0.004 0.48,0.005 0.455,0.012C0.43,0.018 0.406,0.021 0.385,0.021C0.372,0.021 0.357,0.02 0.338,0.018C0.319,0.015 0.299,0.012 0.279,0.008C0.259,0.004 0.24,-0 0.221,-0.006C0.202,-0.011 0.186,-0.016 0.173,-0.021ZM0.259,-0.225C0.26,-0.19 0.261,-0.165 0.262,-0.15C0.263,-0.135 0.265,-0.123 0.266,-0.115C0.268,-0.104 0.273,-0.093 0.281,-0.082C0.288,-0.071 0.298,-0.06 0.311,-0.051C0.323,-0.042 0.337,-0.034 0.354,-0.029C0.37,-0.023 0.388,-0.02 0.408,-0.02C0.429,-0.02 0.449,-0.024 0.468,-0.031C0.487,-0.038 0.503,-0.05 0.517,-0.066C0.53,-0.081 0.541,-0.101 0.549,-0.126C0.557,-0.151 0.561,-0.18 0.561,-0.215C0.561,-0.246 0.556,-0.273 0.546,-0.295C0.536,-0.317 0.522,-0.335 0.504,-0.349C0.485,-0.362 0.463,-0.372 0.437,-0.378C0.411,-0.384 0.382,-0.387 0.35,-0.387C0.331,-0.387 0.314,-0.387 0.297,-0.387C0.28,-0.386 0.268,-0.386 0.26,-0.385C0.259,-0.378 0.259,-0.37 0.259,-0.362L0.259,-0.225ZM0.273,-0.659C0.272,-0.65 0.27,-0.638 0.269,-0.623C0.268,-0.608 0.266,-0.59 0.265,-0.57C0.264,-0.549 0.263,-0.527 0.262,-0.504C0.261,-0.48 0.26,-0.455 0.259,-0.43C0.26,-0.428 0.263,-0.427 0.27,-0.426C0.277,-0.424 0.285,-0.424 0.294,-0.423C0.303,-0.422 0.312,-0.422 0.322,-0.422C0.332,-0.421 0.341,-0.421 0.349,-0.421C0.362,-0.421 0.373,-0.422 0.382,-0.423C0.391,-0.424 0.4,-0.425 0.407,-0.428C0.413,-0.43 0.42,-0.433 0.426,-0.436C0.432,-0.439 0.438,-0.444 0.444,-0.449C0.455,-0.458 0.466,-0.472 0.476,-0.491C0.485,-0.51 0.49,-0.537 0.49,-0.571C0.49,-0.595 0.487,-0.616 0.48,-0.635C0.473,-0.653 0.465,-0.668 0.454,-0.681C0.443,-0.693 0.431,-0.702 0.418,-0.708C0.404,-0.714 0.39,-0.717 0.375,-0.717C0.368,-0.717 0.359,-0.716 0.348,-0.714C0.337,-0.712 0.327,-0.709 0.317,-0.705C0.307,-0.7 0.298,-0.694 0.29,-0.687C0.281,-0.679 0.276,-0.67 0.273,-0.659Z" style="fill:rgb(35,31,32);fill-rule:nonzero;"/>
            </g>
        </g>
    </g>
</svg>
