<?xml version="1.0" standalone="no"?>
<!DOCTYPE svg PUBLIC "-//W3C//DTD SVG 20010904//EN"
 "http://www.w3.org/TR/2001/REC-SVG-20010904/DTD/svg10.dtd">
<svg version="1.0" xmlns="http://www.w3.org/2000/svg"
 width="700.000000pt" height="700.000000pt" viewBox="0 0 700.000000 700.000000"
 preserveAspectRatio="xMidYMid meet">
<metadata>
Created by potrace 1.14, written by Peter Selinger 2001-2017
</metadata>
<g transform="translate(0.000000,700.000000) scale(0.100000,-0.100000)"
fill="#000000" stroke="none">
<path d="M2518 6005 c-2 -2 -37 -6 -78 -10 -96 -8 -122 -12 -157 -19 -15 -3
-43 -8 -60 -11 -258 -42 -569 -168 -813 -328 -157 -104 -223 -159 -370 -307
-263 -264 -459 -571 -618 -965 -44 -109 -123 -348 -137 -412 -2 -10 -17 -74
-33 -143 -17 -69 -33 -147 -38 -175 -4 -27 -8 -54 -10 -60 -7 -32 -22 -148
-39 -300 -10 -87 -18 -323 -19 -525 l-1 -195 1316 -3 1317 -2 -2 -780 -1 -780
303 0 302 0 1 23 c0 12 1 363 1 779 l1 758 91 0 92 0 -1 -766 c0 -421 3 -771
7 -777 9 -15 3266 -17 3277 -2 5 8 8 527 2 583 -1 9 -276 12 -1341 12 l-1340
0 0 475 0 475 620 0 620 0 0 303 0 302 -617 0 -618 0 -3 1121 -2 1120 1077 -1
c593 0 1084 1 1091 3 9 3 12 73 12 303 l0 299 -42 0 c-367 4 -2732 0 -2736 -5
-4 -3 -7 -644 -7 -1423 l0 -1416 -91 -1 -92 -1 0 1386 c0 762 -1 1404 -1 1428
l-1 43 -430 -2 c-236 -1 -431 -3 -432 -4z m259 -1705 c1 -608 0 -1114 -2
-1125 -4 -20 -11 -20 -1007 -20 l-1003 0 1 30 c1 35 13 159 19 195 2 14 6 43
9 65 4 22 8 51 11 65 2 14 7 36 9 50 2 14 16 75 29 135 130 565 391 1028 749
1326 252 209 587 345 923 374 44 4 81 8 82 9 1 0 41 1 90 1 l88 0 2 -1105z"/>
</g>
</svg>
