<?xml version="1.0" standalone="no"?>
<!DOCTYPE svg PUBLIC "-//W3C//DTD SVG 20010904//EN"
 "http://www.w3.org/TR/2001/REC-SVG-20010904/DTD/svg10.dtd">
<svg version="1.0" xmlns="http://www.w3.org/2000/svg"
 width="700.000000pt" height="700.000000pt" viewBox="0 0 700.000000 700.000000"
 preserveAspectRatio="xMidYMid meet">
<metadata>
Created by potrace 1.14, written by Peter Selinger 2001-2017
</metadata>
<g transform="translate(0.000000,700.000000) scale(0.100000,-0.100000)"
fill="#000000" stroke="none">
<path d="M4875 6354 c-189 -19 -355 -66 -624 -174 -313 -127 -304 -125 -646
-124 -171 0 -378 7 -505 17 -324 25 -369 25 -390 -1 -39 -48 -28 -149 18 -167
9 -4 80 -6 157 -6 168 2 288 -17 365 -56 49 -26 57 -34 77 -84 44 -111 82
-396 105 -784 16 -289 17 -1488 0 -1810 -30 -589 -72 -907 -134 -1029 -32 -62
-126 -155 -193 -189 -56 -29 -69 -31 -183 -35 -134 -4 -198 10 -226 50 -9 12
-23 18 -37 16 -18 -2 -29 -17 -48 -66 -23 -60 -24 -66 -10 -105 21 -63 64 -80
211 -85 124 -5 233 7 351 38 86 23 292 106 399 162 l77 40 108 -35 c234 -77
408 -119 693 -167 465 -79 717 -61 1099 77 350 126 657 317 901 562 355 356
498 734 420 1111 -29 143 -81 239 -190 354 -239 249 -568 392 -1075 466 -77
11 -156 20 -175 20 -30 0 -21 7 80 58 313 159 523 334 675 561 124 187 173
328 182 526 6 143 -10 234 -60 340 -155 324 -577 505 -1212 519 -93 2 -188 2
-210 0z m143 -257 c199 -58 349 -207 441 -439 50 -126 65 -222 65 -408 0 -337
-58 -504 -239 -686 -132 -133 -229 -175 -454 -195 -139 -13 -506 0 -613 22
l-58 12 0 76 c0 286 56 1189 81 1299 23 105 109 197 244 262 167 79 377 102
533 57z m67 -1976 c407 -71 636 -220 770 -502 19 -41 47 -119 62 -174 25 -95
27 -112 27 -335 1 -206 -2 -249 -22 -348 -106 -527 -403 -793 -887 -793 -136
0 -222 15 -345 60 -208 76 -363 211 -458 398 -56 109 -72 362 -72 1130 l0 582
53 4 c28 2 210 3 402 2 303 -2 366 -5 470 -24z"/>
<path d="M612 6152 c-20 -20 -42 -79 -42 -114 0 -9 10 -28 23 -42 21 -24 28
-24 237 -35 118 -6 241 -16 273 -22 l57 -12 15 -51 c50 -175 71 -520 85 -1416
15 -922 -13 -1730 -81 -2335 -27 -240 -65 -490 -89 -587 -80 -310 -231 -537
-422 -633 -107 -53 -195 -69 -366 -63 -167 6 -182 0 -182 -71 0 -53 29 -85 98
-111 48 -18 69 -21 132 -15 186 17 394 99 548 215 133 100 231 217 334 403 83
147 133 184 348 256 150 51 215 87 271 149 51 57 103 163 127 257 16 65 17
171 18 1430 0 1380 5 1637 40 1947 27 247 70 452 113 537 40 78 76 93 299 121
79 11 150 24 157 30 38 32 40 130 3 154 -12 7 -71 3 -205 -14 -160 -20 -246
-24 -586 -28 -418 -4 -603 4 -901 39 -300 35 -281 34 -304 11z"/>
</g>
</svg>
